<svg width="192" height="192" viewBox="0 0 192 192" fill="none" xmlns="http://www.w3.org/2000/svg">
<rect width="192" height="192" rx="24" fill="#22c55e"/>
<path d="M96 48C108.284 48 118 57.716 118 70V122C118 134.284 108.284 144 96 144C83.716 144 74 134.284 74 122V70C74 57.716 83.716 48 96 48Z" fill="white"/>
<path d="M88 82H104V98H88V82Z" fill="#22c55e"/>
<path d="M88 106H104V122H88V106Z" fill="#22c55e"/>
<circle cx="96" cy="64" r="4" fill="#22c55e"/>
<path d="M80 130C80 130 84 134 96 134C108 134 112 130 112 130" stroke="#22c55e" stroke-width="2" stroke-linecap="round"/>
</svg>
